# xmcd
#
# Track frame offsets:
#	150
#	20185
#	38741
#	54643
#	70155
#	85544
#	103673
#	120225
#	136347
#	150735
#	165138
#	180654
#	206843
#	226680
#	242406
#	259186
#	274691
#	288247
#	312112
#	328899
#	343648
#
# Disc length: 4789 seconds
#
# Revision: 0
# Processed by: cddbd v1.5.2PL0 Copyright (c) Steve Scherf et al.
# Submitted via: EasyCDDAExtractor 16.0.9.1
#
DISCID=1b12b315
DTITLE=Various Artist - MTV, Viva Dance Boom Boom Vol.2
DYEAR=2000
DGENRE=Dance
TTITLE0=Yamboo - Aya Baila
TTITLE1=K.G.P. - Belle
TTITLE2=Rabanne - Bye Bye
TTITLE3=Mr. President and B. Charme - This Is My World
TTITLE4=Captain G.Q. - Hey Senorita
TTITLE5=Jennifer Lopez - Lets Get Loed
TTITLE6=Kenny Blake - Tom's Diner
TTITLE7=Marque - One To Make Her Happy
TTITLE8=Vengaboys - Uncle John From Jamaica
TTITLE9=Lido Brothers and Maria - Mamba Italiano
TTITLE10=Britney Spears  - Lucky
TTITLE11=Melanie C. - If That Were Me
TTITLE12=E. Iglesias and W. Houston - Could I Have This Kiss Forever
TTITLE13=The Cors - Breathless
TTITLE14=ATC - Around The World
TTITLE15=Paffendorf - Everybody Scream
TTITLE16=ATB - The Summer
TTITLE17=Limp Bizkit - Take A Look Around
TTITLE18=Bad Boys Blue - Do What You Do (Rap Edit)
TTITLE19=Bomfunk Mc's - B-Boys and Fly Girls
TTITLE20=Him - Join Me
EXTD=
EXTT0=
EXTT1=
EXTT2=
EXTT3=
EXTT4=
EXTT5=
EXTT6=
EXTT7=
EXTT8=
EXTT9=
EXTT10=
EXTT11=
EXTT12=
EXTT13=
EXTT14=
EXTT15=
EXTT16=
EXTT17=
EXTT18=
EXTT19=
EXTT20=
PLAYORDER=
